<?xml version="1.0" standalone="no"?>
<!DOCTYPE svg PUBLIC "-//W3C//DTD SVG 20010904//EN"
 "http://www.w3.org/TR/2001/REC-SVG-20010904/DTD/svg10.dtd">
<svg version="1.0" xmlns="http://www.w3.org/2000/svg"
 width="407.000000pt" height="407.000000pt" viewBox="0 0 407.000000 407.000000"
 preserveAspectRatio="xMidYMid meet">
<metadata>
Created by potrace 1.14, written by Peter Selinger 2001-2017
</metadata>
<g transform="translate(0.000000,407.000000) scale(0.100000,-0.100000)"
fill="#000000" stroke="none">
<path d="M1975 3218 c-8 -5 -24 -11 -35 -13 -23 -4 -69 -36 -70 -48 0 -5 -4
-5 -10 -2 -5 3 -10 -3 -10 -14 0 -19 -11 -26 -34 -22 -5 1 -3 -5 4 -14 11 -14
10 -17 -9 -22 -12 -3 -20 -11 -17 -18 8 -22 -20 -10 -48 20 -26 28 -26 30 -9
43 17 13 17 14 -3 8 -15 -5 -31 2 -55 24 -19 17 -46 33 -61 37 -16 3 -28 9
-28 14 0 9 -149 5 -195 -6 -46 -11 -48 -11 -75 -22 -14 -6 -28 -9 -32 -6 -5 2
-8 -1 -8 -6 0 -6 -6 -11 -14 -11 -8 0 -16 -3 -18 -7 -1 -5 -36 -30 -75 -57
-40 -26 -73 -53 -73 -59 0 -6 -3 -8 -6 -4 -3 3 -19 -8 -35 -24 -16 -16 -29
-27 -29 -25 0 3 -38 -34 -85 -81 -47 -48 -85 -90 -85 -95 0 -5 -5 -6 -10 -3
-6 3 -10 2 -10 -4 0 -5 -16 -25 -35 -45 -19 -20 -32 -36 -28 -36 3 0 -7 -12
-22 -27 -15 -16 -35 -39 -44 -53 -8 -14 -21 -29 -28 -33 -7 -4 -13 -14 -13
-21 0 -8 -7 -16 -15 -20 -8 -3 -15 -13 -15 -21 0 -9 -4 -14 -8 -11 -4 3 -16
-11 -27 -30 -10 -19 -22 -34 -27 -34 -5 0 -6 -4 -3 -10 3 -5 2 -10 -3 -10 -10
0 -172 -244 -172 -259 0 -6 -4 -11 -9 -11 -5 0 -17 -17 -26 -37 -10 -21 -26
-49 -35 -63 -10 -14 -18 -27 -17 -30 0 -3 -10 -24 -21 -46 -12 -23 -18 -44
-15 -48 4 -3 2 -6 -4 -6 -9 0 -28 -54 -24 -72 0 -5 -3 -8 -7 -8 -4 0 -8 -8 -9
-18 -2 -29 -8 -47 -16 -53 -4 -3 -8 -24 -10 -47 -1 -23 -4 -42 -7 -42 -5 0 -5
-169 0 -180 1 -3 3 -16 4 -30 2 -14 6 -38 10 -55 3 -16 8 -39 10 -50 7 -32 48
-140 57 -145 4 -3 9 -12 11 -19 3 -15 34 -51 43 -51 3 0 17 -11 31 -25 14 -14
31 -25 39 -25 8 0 19 -8 24 -18 6 -9 11 -12 11 -5 0 8 6 8 25 0 28 -13 31 -26
13 -47 -11 -12 -10 -12 3 -2 12 9 18 7 31 -7 15 -17 15 -20 -1 -37 -15 -17
-15 -17 2 -5 12 10 17 10 17 2 0 -7 5 -9 11 -5 8 4 7 9 -2 16 -11 7 -9 8 4 4
10 -3 21 -6 24 -6 3 0 -1 -8 -8 -17 -13 -16 -12 -17 3 -5 18 14 14 47 -5 35
-6 -3 -7 -1 -3 5 5 8 1 10 -10 5 -13 -5 -15 -3 -9 7 6 9 4 11 -5 5 -9 -6 -11
-4 -5 5 6 9 4 11 -5 5 -9 -6 -11 -4 -5 5 5 8 4 11 -2 7 -5 -3 -10 0 -10 7 0 8
6 12 14 9 7 -3 13 -9 13 -15 0 -5 5 -6 12 -2 7 5 8 3 3 -6 -6 -10 -4 -12 9 -7
10 4 20 7 22 7 3 0 2 6 -2 12 -4 8 -3 10 2 5 5 -5 9 -14 9 -20 1 -7 6 -11 12
-10 13 3 11 -14 -5 -44 -17 -32 -15 -36 15 -28 24 6 25 5 12 -11 -9 -11 -9
-15 -1 -10 16 9 16 -6 -1 -24 -6 -8 -2 -6 10 4 12 10 27 15 34 10 8 -4 10 -3
5 4 -4 7 -14 12 -23 12 -9 0 -13 3 -9 7 10 10 46 11 40 1 -3 -4 -1 -8 5 -8 22
0 19 19 -6 35 -20 14 -25 14 -21 3 4 -8 0 -15 -8 -15 -7 0 -11 3 -9 7 2 4 -2
7 -10 7 -8 0 -15 -4 -15 -9 0 -4 -5 -8 -11 -8 -8 0 -8 5 1 15 7 8 17 12 23 8
7 -4 8 0 3 12 -5 15 -4 16 9 5 8 -7 15 -9 15 -5 0 4 15 -4 34 -19 42 -32 55
-34 30 -3 -10 12 -12 17 -5 10 11 -9 18 -7 33 10 l19 22 -15 -26 c-17 -27 -13
-39 13 -39 14 0 14 2 1 10 -13 8 -12 10 3 10 23 0 22 -17 -2 -30 -23 -12 -34
-13 -27 -2 2 4 -4 8 -14 8 -11 0 -22 -6 -24 -13 -3 -7 1 -10 10 -6 8 3 21 -3
30 -13 8 -11 13 -13 12 -5 -2 7 3 16 11 19 8 3 11 0 7 -7 -4 -6 -2 -11 4 -11
7 0 9 7 6 16 -4 10 -2 14 6 11 7 -2 12 -10 10 -16 -1 -7 2 -10 7 -7 5 4 11 3
14 -1 2 -5 2 -2 0 6 -2 8 2 11 11 8 10 -4 13 -1 10 8 -3 7 -13 12 -23 10 -10
-2 -18 3 -18 10 0 8 4 12 9 9 4 -3 8 0 8 7 0 7 7 4 16 -7 14 -18 15 -18 9 6
-5 19 -4 22 4 10 7 -10 11 -11 11 -2 0 6 5 12 10 12 6 0 3 -11 -6 -25 -9 -15
-13 -25 -8 -24 20 4 28 -2 14 -11 -8 -5 -11 -13 -6 -17 5 -4 11 -2 13 5 3 6
10 9 16 5 7 -4 6 1 -2 10 -19 23 -5 21 32 -5 31 -21 31 -21 14 -1 -12 14 -15
23 -8 28 14 8 14 25 0 25 -5 0 -7 -5 -3 -12 5 -7 3 -8 -6 -3 -8 5 -11 4 -7 -2
4 -7 -3 -10 -18 -9 -14 0 -25 2 -25 3 0 1 14 9 31 17 24 12 35 13 46 5 10 -9
10 -15 2 -25 -6 -8 -10 -14 -8 -15 31 -6 40 -6 46 3 3 6 1 8 -5 4 -6 -3 -13
-3 -16 2 -2 4 4 13 15 20 16 10 19 9 19 -3 0 -18 9 -19 30 -4 12 9 12 10 -3 5
-12 -4 -17 -2 -14 6 2 7 12 13 21 13 10 0 22 8 28 18 9 17 8 17 -10 8 -11 -6
-22 -7 -26 -4 -3 3 -6 1 -6 -6 0 -7 -4 -10 -9 -7 -5 3 -14 -1 -21 -9 -18 -21
-25 -19 -39 12 -10 26 -10 27 4 9 13 -17 18 -18 39 -6 13 7 22 18 20 25 -7 17
13 29 22 14 4 -8 3 -9 -4 -5 -12 7 -17 -6 -6 -17 10 -9 35 4 28 15 -4 6 3 5
15 -1 11 -7 21 -8 21 -4 0 4 5 2 12 -5 7 -7 17 -12 23 -12 5 0 5 4 -2 8 -9 6
-8 12 5 22 26 21 46 24 39 6 -4 -9 -2 -18 2 -20 5 -3 7 5 7 17 -3 27 12 49 27
40 5 -3 7 -1 4 4 -4 6 0 14 9 17 12 5 14 1 10 -17 -6 -22 -6 -22 6 1 8 15 18
22 30 19 10 -3 16 -2 13 2 -7 13 25 52 37 45 6 -4 8 -2 4 4 -3 6 -2 13 3 16 5
4 11 1 14 -6 2 -7 3 -5 2 4 -2 10 4 23 12 30 14 11 15 10 9 -12 -6 -21 -5 -22
4 -7 6 9 15 15 19 13 4 -3 8 0 8 7 0 13 -60 17 -73 4 -4 -4 -2 -7 5 -7 7 0 9
-5 5 -11 -4 -8 -9 -7 -15 2 -13 21 -11 27 10 34 10 3 23 15 30 28 11 22 11 22
6 0 -3 -12 0 -25 6 -29 7 -4 9 -3 5 4 -3 6 -1 14 5 18 8 4 9 3 5 -4 -5 -8 1
-12 18 -12 13 0 26 -4 28 -10 2 -5 13 -11 26 -13 13 -2 28 -10 33 -18 5 -8 9
-10 9 -6 0 5 7 1 16 -7 8 -9 20 -16 27 -16 6 0 3 6 -8 13 -12 10 -15 16 -6 21
6 4 14 0 17 -9 5 -12 9 -13 21 -4 11 10 15 8 20 -10 4 -17 8 -19 14 -9 5 8 9
9 9 2 0 -22 -27 -36 -49 -25 -25 14 -31 14 -31 0 0 -5 5 -7 10 -4 14 9 12 -8
-2 -25 -7 -8 -3 -6 9 4 21 18 22 17 48 -8 14 -15 31 -23 37 -20 8 5 9 1 5 -10
-4 -9 -3 -15 1 -12 4 2 14 1 22 -4 9 -5 19 -5 27 2 16 13 46 -8 36 -26 -4 -6
1 -5 10 2 9 8 22 11 29 7 7 -4 4 1 -7 11 -20 16 -20 16 3 11 28 -7 52 1 52 15
0 6 -7 5 -15 -2 -9 -7 -18 -10 -22 -6 -3 3 -1 6 6 6 7 0 9 5 6 10 -5 8 -11 7
-21 -1 -10 -8 -14 -8 -14 0 0 6 3 11 8 12 4 0 15 2 24 4 10 2 20 -1 24 -6 6
-11 24 -2 24 12 0 6 -4 8 -8 5 -4 -2 -8 3 -8 13 0 10 6 18 13 18 7 0 10 -4 7
-9 -3 -5 -1 -15 5 -22 6 -7 8 -21 5 -31 -6 -13 -9 -14 -16 -3 -7 10 -8 9 -4
-4 3 -11 0 -18 -8 -18 -7 0 -21 -10 -32 -22 -19 -23 -19 -23 1 -7 11 9 30 20
43 23 12 4 22 14 22 22 0 8 5 12 10 9 6 -4 7 -12 3 -18 -4 -7 0 -6 10 2 16 13
22 8 17 -14 -1 -5 2 -6 6 -2 11 11 14 38 3 32 -4 -3 -11 5 -15 19 -4 16 -11
23 -20 19 -8 -3 -14 0 -14 6 0 6 3 10 8 10 4 -1 10 0 15 1 12 4 26 7 38 9 5 0
8 5 5 10 -9 14 26 23 38 10 8 -9 7 -10 -3 -4 -8 4 -17 2 -22 -6 -12 -20 -11
-26 6 -26 8 0 12 4 9 9 -5 7 10 12 29 9 4 -1 4 7 -1 16 -10 21 -10 44 0 41 4
-2 13 5 20 14 11 15 15 15 26 2 13 -14 5 -19 -21 -15 -5 1 -5 -4 -1 -10 4 -7
3 -9 -4 -5 -11 7 -7 -43 5 -54 3 -3 3 5 0 18 -4 17 -2 22 8 18 10 -3 12 0 8
11 -4 11 -2 14 5 9 7 -4 12 -3 12 3 0 6 8 8 18 5 16 -5 16 -5 0 6 -14 9 -15
14 -6 30 9 14 9 22 -1 33 -8 11 -9 17 -1 22 6 4 9 1 8 -6 -2 -6 4 -14 12 -17
8 -2 12 -1 7 3 -4 5 1 17 10 28 17 20 17 20 -2 13 -15 -5 -17 -4 -9 4 9 9 17
9 32 1 16 -8 21 -7 26 5 4 12 2 15 -9 11 -8 -4 -17 -2 -20 4 -4 5 -3 9 2 8 25
-4 35 2 30 22 -3 12 -3 18 0 15 3 -3 15 -1 27 5 20 10 20 9 2 -5 -10 -8 -15
-19 -12 -24 3 -6 0 -13 -6 -15 -8 -3 -5 -6 6 -6 12 -1 16 4 13 13 -6 14 21 32
31 21 3 -3 1 -5 -5 -5 -5 0 -10 -7 -10 -15 0 -7 18 6 40 31 22 25 45 43 51 41
7 -3 11 9 11 34 0 28 -4 39 -15 39 -8 0 0 8 18 16 17 9 32 21 32 26 0 5 -4 7
-8 4 -5 -3 -9 1 -9 9 0 18 14 20 20 3 3 -9 10 -8 25 6 21 18 21 20 4 33 -15
13 -15 13 6 3 13 -6 22 -7 22 -1 0 5 -6 12 -12 14 -8 4 -9 6 -2 6 6 1 17 -6
24 -14 9 -11 9 -15 1 -15 -7 0 -9 -5 -6 -10 4 -6 10 -8 15 -5 5 3 12 0 16 -6
4 -8 3 -9 -4 -5 -7 4 -12 2 -12 -3 0 -6 5 -11 12 -11 6 0 9 -2 6 -5 -13 -13
108 -115 137 -115 9 0 13 -5 9 -11 -4 -7 0 -9 14 -5 11 4 23 2 27 -4 3 -6 11
-7 17 -4 6 4 8 2 5 -3 -4 -6 -17 -9 -29 -8 -13 1 -15 0 -5 -2 9 -2 15 -9 11
-14 -3 -6 3 -5 15 3 12 7 21 17 21 22 0 4 8 -2 18 -15 13 -15 21 -19 26 -11 4
7 2 12 -3 12 -6 0 -11 5 -11 11 0 8 5 8 15 -1 11 -9 12 -16 5 -25 -7 -9 -5
-16 7 -26 14 -12 16 -12 11 2 -4 9 -1 16 7 16 7 0 11 -6 8 -13 -2 -6 6 -19 19
-28 25 -18 42 -21 33 -7 -3 5 -1 12 5 16 6 4 8 10 5 15 -3 5 -1 11 4 14 4 3 8
-4 7 -17 -1 -15 4 -21 14 -19 12 3 13 1 3 -9 -19 -19 -16 -29 7 -29 11 0 20
-5 20 -11 0 -6 -7 -9 -15 -6 -8 4 -17 2 -20 -3 -3 -4 7 -7 22 -5 16 2 36 -1
46 -6 9 -6 17 -6 16 -2 -3 20 2 34 11 28 6 -4 8 -10 6 -14 -3 -4 5 -8 17 -8
17 -2 18 0 7 7 -8 5 -11 12 -7 16 3 4 13 1 22 -6 8 -7 15 -8 15 -2 0 5 -13 15
-28 21 -16 7 -29 19 -29 28 0 13 2 14 11 1 14 -18 46 -30 46 -17 0 6 5 7 10 4
9 -6 14 14 11 42 -2 12 16 26 37 29 28 5 43 14 37 23 -3 6 4 8 15 6 11 -2 20
1 20 7 0 6 9 8 21 5 12 -3 28 0 36 9 10 10 11 14 2 14 -7 0 -9 3 -5 7 12 12
40 12 56 0 13 -10 13 -10 3 4 -7 9 -11 18 -8 21 3 3 -2 11 -12 19 -9 8 -14 9
-11 4 4 -6 3 -17 -3 -25 -7 -13 -9 -13 -9 0 0 13 -1 13 -10 0 -8 -13 -10 -12
-10 3 0 9 5 17 11 17 5 0 8 4 5 9 -8 13 -36 7 -47 -10 -5 -8 -9 -9 -9 -3 0 13
30 41 39 36 3 -2 12 -9 20 -15 12 -10 13 -9 7 8 -4 11 -4 16 0 13 8 -8 48 18
50 32 1 6 2 15 3 20 0 6 6 10 12 10 8 0 8 -5 -1 -15 -9 -10 -9 -15 -1 -15 6 0
3 -8 -6 -18 -10 -11 -22 -17 -27 -14 -5 3 -6 -1 -1 -8 5 -9 4 -11 -3 -6 -7 4
-12 3 -12 -2 0 -11 30 -25 38 -17 3 3 0 5 -7 5 -7 0 -9 5 -6 10 5 8 11 8 20 0
9 -8 15 -8 20 0 4 6 1 9 -6 8 -6 -2 -14 3 -17 11 -3 8 0 11 7 7 6 -4 11 -2 11
4 0 6 5 8 13 4 8 -5 8 -2 -2 9 -11 14 -11 20 0 33 12 14 14 14 27 -3 13 -17
14 -16 7 6 -6 18 -4 22 6 15 11 -6 12 -5 3 7 -14 18 -12 53 5 73 9 11 10 16 2
16 -6 0 -11 8 -11 17 0 15 2 14 15 -3 13 -17 14 -17 15 -1 0 9 5 17 10 17 7 0
7 7 -1 21 -8 15 -8 19 0 15 6 -4 11 -3 11 2 0 6 6 12 14 15 9 4 13 0 11 -11
-1 -9 -8 -16 -14 -14 -6 1 -11 -2 -11 -8 0 -5 4 -10 10 -10 5 0 -2 -12 -15
-26 -14 -15 -22 -31 -18 -37 4 -6 1 -7 -7 -2 -9 6 -11 4 -5 -5 6 -9 4 -11 -6
-5 -12 7 -12 5 -1 -6 11 -12 14 -12 22 1 5 8 6 18 4 22 -3 4 0 8 5 8 6 0 11 7
11 16 0 8 5 12 10 9 9 -6 14 7 11 27 0 4 8 12 19 18 15 8 21 6 29 -7 10 -16
11 -16 8 2 -1 11 -7 26 -11 34 -7 11 -5 13 10 7 14 -5 16 -4 7 5 -12 12 -37 3
-28 -11 3 -5 1 -11 -5 -15 -5 -3 -10 1 -10 9 0 9 -6 16 -12 16 -9 0 -8 3 2 9
8 6 18 7 22 5 4 -3 8 4 8 14 0 11 7 25 15 32 8 7 12 17 8 23 -3 6 -1 7 5 3 7
-4 12 -2 12 5 0 6 -8 9 -18 7 -11 -3 -19 0 -19 7 0 7 8 10 17 8 25 -7 96 57
78 69 -8 6 -5 7 11 3 13 -4 21 -3 18 2 -3 5 -2 15 4 23 6 10 9 11 9 3 0 -7 5
-13 10 -13 15 0 7 24 -10 32 -9 5 -3 7 15 5 17 -1 30 -7 30 -12 0 -6 -5 -9
-12 -7 -7 2 -13 -1 -12 -5 3 -17 -1 -33 -8 -31 -8 3 -13 -5 -13 -22 0 -5 8 -2
18 8 11 9 17 20 15 25 -2 4 1 8 6 8 6 1 16 3 21 4 6 1 12 3 15 4 3 0 -2 12
-11 26 -9 14 -21 22 -28 18 -7 -4 -6 -1 1 9 7 8 10 17 7 20 -2 3 2 8 10 11 9
4 18 1 22 -5 4 -7 3 -8 -4 -4 -7 4 -12 3 -12 -3 0 -17 17 -21 29 -7 8 10 9 16
1 21 -5 3 -10 12 -10 18 0 8 3 8 9 -1 7 -11 9 -11 14 2 4 9 13 16 21 16 10 0
13 8 10 28 -3 19 -2 23 5 12 5 -8 8 -17 5 -21 -4 -8 26 -22 33 -15 3 2 -2 15
-11 28 -10 15 -12 28 -6 38 5 9 3 25 -6 44 -12 25 -12 27 -1 14 8 -10 17 -15
20 -11 4 3 2 12 -3 18 -7 9 -6 16 4 24 12 10 14 9 12 -6 -2 -10 4 -23 11 -29
13 -9 12 -12 -3 -25 -16 -13 -17 -12 -11 4 4 11 3 16 -3 12 -6 -4 -8 -17 -6
-30 3 -13 -1 -26 -7 -29 -8 -3 -8 -5 1 -5 7 -1 10 -6 6 -13 -4 -7 -3 -8 4 -4
7 4 12 2 12 -5 0 -7 3 -9 6 -6 4 4 1 14 -7 24 -12 15 -12 16 4 10 11 -4 16 -3
12 3 -3 6 -1 10 4 10 6 0 11 5 11 12 0 9 -3 9 -12 0 -27 -27 -29 -10 -2 19 16
17 23 29 15 27 -7 -2 -16 3 -19 11 -3 9 0 11 8 6 8 -5 11 -4 6 3 -3 5 -3 12 1
15 5 2 3 2 -4 1 -7 -2 -15 1 -19 7 -4 6 -15 4 -30 -6 -13 -8 -24 -11 -24 -5 0
5 5 10 11 10 6 0 8 7 5 16 -5 14 -4 15 9 4 13 -11 15 -9 15 14 0 14 -5 26 -11
26 -5 0 -8 -4 -5 -8 2 -4 -5 -9 -17 -9 -20 -2 -20 -1 -4 8 9 6 17 15 17 21 0
6 -6 6 -15 -2 -13 -10 -18 -11 -28 -1 -9 10 -8 11 5 6 11 -4 20 1 28 14 9 17
8 22 -4 27 -9 3 -12 12 -9 21 4 11 2 14 -5 9 -7 -4 -12 -2 -12 4 0 7 7 9 16 6
10 -4 14 -2 11 6 -2 7 -10 12 -16 10 -6 -1 -11 2 -11 8 0 13 6 13 31 0 16 -9
17 -15 8 -31 -6 -12 -8 -23 -5 -27 3 -3 6 0 6 7 0 7 5 9 12 5 7 -5 9 -2 5 8
-3 9 0 21 6 28 9 10 9 11 0 6 -7 -4 -17 3 -24 16 -11 20 -10 21 2 11 12 -10
17 -8 27 7 9 14 9 21 0 26 -6 4 -8 3 -4 -4 3 -6 2 -13 -3 -16 -13 -8 -42 4
-35 15 3 5 -1 6 -8 4 -9 -4 -14 2 -15 15 -1 11 2 18 8 15 5 -4 9 -1 9 4 0 14
-1 14 -43 -4 -32 -13 -36 -13 -31 0 3 8 9 14 12 13 20 -2 28 4 29 25 l2 22
-13 -23 c-6 -12 -15 -20 -19 -16 -4 4 -2 13 4 21 9 9 8 13 0 13 -6 0 -11 -5
-11 -11 0 -5 -6 -7 -12 -3 -10 6 -10 5 0 -8 10 -12 9 -18 -3 -28 -10 -9 -15
-9 -15 -1 0 6 5 11 11 11 8 0 7 5 -2 16 -10 13 -10 17 2 26 11 8 10 9 -4 4
-10 -3 -21 -6 -23 -6 -2 0 -2 -12 1 -27 3 -16 2 -21 -2 -13 -10 23 -30 40 -38
32 -4 -4 -2 3 4 16 13 25 23 30 15 7 -4 -8 -2 -15 3 -15 12 0 33 22 33 34 0 5
-7 1 -15 -10 -13 -16 -14 -16 -9 -1 7 18 -10 24 -21 7 -4 -6 -11 -7 -17 -4 -6
4 -8 2 -4 -4 3 -6 1 -14 -5 -18 -9 -5 -10 0 -7 14 4 12 2 22 -4 22 -5 0 -6 10
-3 23 5 16 4 18 -3 8 -8 -11 -12 -10 -23 8 -8 11 -17 21 -22 21 -4 0 -17 9
-29 20 -12 11 -28 20 -35 20 -7 0 -13 4 -13 8 0 10 -39 15 -115 15 -48 0 -75
-7 -128 -32 -37 -18 -67 -36 -67 -42 0 -5 -7 -9 -15 -9 -8 0 -15 -7 -15 -16 0
-8 -4 -13 -9 -10 -5 3 -12 -1 -15 -10 -3 -9 -12 -14 -20 -11 -8 3 -17 3 -20
-1 -4 -3 -13 -7 -22 -8 -11 -2 -13 4 -10 19 3 12 3 16 0 10 -3 -7 -13 -13 -22
-13 -10 0 -13 3 -7 8 6 4 11 14 13 22 2 12 -1 11 -11 -2 -13 -16 -15 -16 -37
5 -12 12 -20 17 -16 11 3 -7 -1 -15 -10 -18 -8 -3 -12 -2 -9 4 3 6 1 10 -4 10
-6 0 -11 5 -11 11 0 5 4 8 8 5 5 -3 9 1 9 9 0 8 -4 15 -9 15 -4 0 -8 -4 -8
-10 0 -18 -18 -11 -25 9 -3 11 -15 23 -26 26 -10 4 -17 11 -14 16 3 5 0 6 -8
3 -8 -3 -17 2 -21 11 -3 9 -10 14 -16 10 -10 -6 -50 13 -62 30 -5 6 -8 4 -8
-5 0 -10 -3 -11 -12 -2 -7 7 -17 8 -30 1 -13 -7 -18 -6 -18 2 0 8 -4 8 -12 1
-7 -5 -23 -8 -36 -6 -16 3 -21 0 -16 -8 4 -7 -3 -4 -16 7 -17 15 -22 16 -18 5
4 -11 -1 -16 -16 -17 -11 0 -15 1 -8 4 19 7 14 23 -5 17 -15 -5 -15 -4 -3 4 8
6 17 9 21 6 4 -2 6 7 5 21 -1 26 -16 36 -16 10 0 -8 -4 -15 -10 -15 -5 0 -6 7
-3 17 5 12 3 14 -8 8 -11 -7 -11 -5 1 10 14 17 13 18 -3 12 -10 -4 -16 -3 -12
2 3 5 -1 12 -7 15 -7 3 -2 3 12 -1 22 -5 23 -4 12 10 -8 9 -20 13 -27 11 -18
-7 -47 38 -39 60 3 9 10 16 15 16 5 0 9 5 9 11 0 8 -4 9 -13 0 -8 -6 -17 -8
-20 -4 -4 3 1 12 11 20 15 12 14 13 -7 2 -22 -10 -23 -9 -17 7 6 18 5 18 -7 2
-8 -10 -17 -15 -20 -11 -4 3 -2 12 5 20 8 10 8 17 -1 26 -10 9 -11 8 -5 -7 6
-15 4 -17 -6 -11 -9 5 -11 4 -6 -3 11 -19 -5 -14 -20 6 -7 9 -14 13 -14 9 0
-4 12 -19 26 -32 19 -18 23 -28 16 -41 -6 -11 -11 -13 -16 -5 -4 6 -2 11 3 11
6 0 11 5 11 11 0 5 -4 7 -10 4 -5 -3 -10 -1 -10 5 0 6 -5 8 -12 4 -6 -4 -8 -3
-4 4 3 6 0 17 -8 25 -11 11 -12 17 -3 27 9 10 9 11 -1 5 -9 -5 -24 4 -43 24
-16 18 -29 29 -29 25 0 -3 -6 -1 -14 5 -27 23 -150 35 -181 19z m354 -152 c9
-11 9 -16 0 -22 -8 -4 -9 -3 -5 4 4 7 2 12 -3 12 -6 0 -11 5 -11 10 0 14 5 13
19 -4z m585 -392 c6 1 17 5 24 9 16 11 15 -1 -1 -18 -12 -11 -19 -10 -42 5
-27 18 -30 18 -41 2 -7 -9 -10 -21 -7 -26 4 -5 1 -6 -6 -1 -9 5 -10 10 -2 18
13 13 15 30 2 23 -11 -7 -23 22 -15 35 3 5 21 -4 41 -20 19 -16 40 -28 47 -27z
m-29 -14 c3 -5 1 -10 -4 -10 -6 0 -11 5 -11 10 0 6 2 10 4 10 3 0 8 -4 11 -10z
m731 -82 c-9 -5 -22 -7 -29 -4 -7 2 -4 5 6 5 9 1 17 6 17 12 0 5 5 7 11 3 8
-5 6 -10 -5 -16z m38 -33 c3 -9 0 -12 -10 -8 -7 3 -14 9 -14 15 0 5 -5 6 -12
2 -7 -4 -8 -3 -4 4 8 14 33 5 40 -13z m-38 -25 c0 -12 -4 -16 -9 -11 -5 5 -6
14 -3 20 10 15 12 14 12 -9z m-1 -250 c3 -6 -1 -7 -9 -4 -18 7 -21 14 -7 14 6
0 13 -4 16 -10z m38 -25 c-3 -9 -8 -14 -10 -11 -3 3 -2 9 2 15 9 16 15 13 8
-4z m-26 -57 c-3 -8 -6 -5 -6 6 -1 11 2 17 5 13 3 -3 4 -12 1 -19z m-57 2 c0
-5 -2 -10 -4 -10 -3 0 -8 5 -11 10 -3 6 -1 10 4 10 6 0 11 -4 11 -10z m-120
-181 c0 -5 -4 -9 -8 -9 -5 0 -9 7 -9 15 0 8 4 12 9 9 4 -3 8 -9 8 -15z m-75
-99 c-3 -5 -12 -10 -18 -10 -7 0 -6 4 3 10 19 12 23 12 15 0z m-35 -39 c0 -5
-7 -12 -16 -15 -14 -5 -15 -4 -4 9 14 17 20 19 20 6z m-55 -89 c-3 -3 -11 0
-18 7 -9 10 -8 11 6 5 10 -3 15 -9 12 -12z m-65 -67 c-7 -8 -17 -15 -23 -15
-6 0 -2 7 9 15 25 19 30 19 14 0z m19 -41 c-7 -8 -6 -13 1 -16 5 -1 1 -9 -11
-16 -16 -10 -19 -10 -13 -1 5 9 2 10 -9 6 -9 -3 -19 -1 -23 5 -4 6 -3 8 3 5
16 -10 53 22 47 41 -5 14 -4 14 4 2 7 -9 7 -18 1 -26z m-19 12 c0 -2 -7 -7
-16 -10 -8 -3 -12 -2 -9 4 6 10 25 14 25 6z m-890 -16 c0 -5 -5 -10 -11 -10
-5 0 -7 5 -4 10 3 6 8 10 11 10 2 0 4 -4 4 -10z m844 -45 c-4 -8 -11 -15 -16
-15 -6 0 -5 6 2 15 7 8 14 15 16 15 2 0 1 -7 -2 -15z m-24 -36 c0 -4 -9 -7
-19 -6 -11 0 -18 4 -16 7 6 9 35 8 35 -1z m-936 -37 c3 -5 -1 -9 -9 -9 -8 0
-12 4 -9 9 3 4 7 8 9 8 2 0 6 -4 9 -8z m-29 -50 c-3 -3 -11 0 -18 7 -9 10 -8
11 6 5 10 -3 15 -9 12 -12z m50 -2 c-2 -11 1 -20 6 -20 5 0 -5 -13 -23 -29
-33 -29 -49 -37 -47 -24 0 4 -8 11 -18 15 -14 7 -13 8 5 4 15 -3 22 0 19 7 -2
7 -14 11 -26 11 -12 -1 -19 1 -16 4 10 10 35 11 41 1 3 -5 15 -9 27 -9 22 1
22 1 -2 14 -20 11 -21 14 -7 19 11 5 15 3 10 -4 -4 -7 -1 -10 7 -7 8 3 13 12
11 22 -2 9 2 16 7 16 5 0 8 -9 6 -20z m860 10 c-3 -5 -2 -10 4 -10 5 0 8 -8 7
-17 -2 -10 -6 -17 -9 -15 -4 1 -13 2 -19 3 -10 0 -10 2 0 6 6 2 12 9 12 14 0
6 -6 7 -12 3 -9 -5 -9 -2 1 9 15 18 26 23 16 7z m-44 -17 c13 -16 12 -17 -3
-4 -17 13 -22 21 -14 21 2 0 10 -8 17 -17z m-961 -94 c0 -5 -4 -9 -8 -9 -5 0
-9 7 -9 15 0 8 4 12 9 9 4 -3 8 -9 8 -15z m800 -5 c0 -8 -19 -13 -24 -6 -3 5
1 9 9 9 8 0 15 -2 15 -3z m22 -6 c-9 -9 -9 -15 1 -27 11 -14 10 -14 -6 -2 -13
10 -15 17 -6 27 6 8 14 14 17 14 3 0 1 -5 -6 -12z m-182 -18 c0 -5 -2 -10 -4
-10 -3 0 -8 5 -11 10 -3 6 -1 10 4 10 6 0 11 -4 11 -10z m80 -22 c0 -12 3 -18
7 -15 3 4 13 1 21 -6 13 -10 14 -8 8 11 -5 15 -3 22 5 22 7 0 9 -3 5 -7 -3 -4
4 -13 16 -21 13 -7 15 -11 6 -8 -10 3 -21 -2 -27 -11 -8 -15 -11 -15 -32 3
-22 17 -37 70 -17 58 4 -3 8 -15 8 -26z m130 22 c0 -5 -2 -10 -4 -10 -3 0 -8
5 -11 10 -3 6 -1 10 4 10 6 0 11 -4 11 -10z m-926 -78 c2 -4 0 -14 -6 -22 -8
-12 -9 -11 -4 4 5 14 2 17 -9 12 -9 -3 -13 -2 -10 4 7 12 22 13 29 2z m-720
-20 c3 -5 -1 -9 -9 -9 -8 0 -15 4 -15 9 0 4 4 8 9 8 6 0 12 -4 15 -8z m616 2
c0 -8 -19 -13 -24 -6 -3 5 1 9 9 9 8 0 15 -2 15 -3z m-650 -44 c0 -5 -5 -10
-11 -10 -5 0 -7 5 -4 10 3 6 8 10 11 10 2 0 4 -4 4 -10z m670 -2 c0 -4 -4 -8
-9 -8 -6 0 -12 4 -15 8 -3 5 1 9 9 9 8 0 15 -4 15 -9z m-637 -16 c8 -11 -42
-64 -53 -57 -6 3 -10 0 -11 -7 0 -9 -2 -10 -5 -1 -4 8 -18 1 -41 -20 -19 -18
-38 -31 -41 -30 -4 1 -16 -7 -27 -17 -25 -24 -32 -24 -50 -6 -23 22 -18 28 8
11 13 -8 26 -12 30 -9 8 8 -16 33 -25 27 -4 -2 -5 3 -1 12 4 13 8 14 14 4 9
-15 37 -21 45 -8 3 5 -2 9 -10 9 -8 0 -17 4 -20 8 -2 4 4 8 15 8 10 0 19 -4
19 -9 0 -4 4 -6 10 -2 5 3 7 12 3 20 -6 17 8 20 24 4 8 -8 15 -5 24 8 15 20
69 62 81 63 4 0 9 -3 11 -8z m-101 -30 c-7 -2 -9 -9 -6 -14 4 -7 2 -8 -4 -4
-6 4 -9 13 -6 21 4 8 11 12 17 8 8 -5 7 -8 -1 -11z m668 12 c0 -8 -19 -13 -24
-6 -3 5 1 9 9 9 8 0 15 -2 15 -3z m-193 -29 c5 -4 3 -5 -3 -2 -14 8 -40 -20
-30 -30 4 -4 11 -1 16 7 7 11 10 12 10 2 0 -7 5 -10 12 -6 7 5 8 3 2 -7 -5 -8
-9 -17 -9 -21 0 -5 -3 -8 -7 -8 -5 0 -12 0 -18 0 -5 0 -10 7 -10 16 0 10 -6
14 -14 11 -8 -3 -21 2 -30 12 -15 16 -15 19 -2 24 10 4 13 1 10 -8 -4 -9 1
-13 12 -11 10 2 20 9 22 16 3 8 0 10 -8 5 -8 -5 -11 -4 -7 2 7 11 43 10 54 -2z
m76 -10 c-3 -9 -8 -14 -10 -11 -3 3 -2 9 2 15 9 16 15 13 8 -4z m-26 -55 c-1
-10 -5 -16 -10 -13 -4 3 -6 12 -3 20 4 10 2 13 -8 10 -10 -4 -13 -1 -9 9 7 20
32 -1 30 -26z m137 24 c3 -8 2 -12 -4 -9 -6 3 -10 10 -10 16 0 14 7 11 14 -7z
m-1189 -74 c3 -5 1 -10 -4 -10 -6 0 -11 5 -11 10 0 6 2 10 4 10 3 0 8 -4 11
-10z m200 0 c3 -5 1 -10 -4 -10 -6 0 -11 5 -11 10 0 6 2 10 4 10 3 0 8 -4 11
-10z m125 6 c0 -2 -7 -9 -15 -16 -13 -11 -14 -10 -9 4 5 14 24 23 24 12z m-90
-26 c0 -5 -5 -10 -11 -10 -5 0 -7 5 -4 10 3 6 8 10 11 10 2 0 4 -4 4 -10z"/>
<path d="M2830 2711 c0 -5 7 -12 16 -15 14 -5 15 -4 4 9 -14 17 -20 19 -20 6z"/>
<path d="M2179 1433 c-13 -16 -12 -17 4 -4 9 7 17 15 17 17 0 8 -8 3 -21 -13z"/>
<path d="M1264 1195 c-4 -8 -10 -13 -14 -10 -4 3 -13 -2 -19 -9 -10 -11 -9
-14 3 -12 19 3 62 46 46 46 -6 0 -13 -7 -16 -15z"/>
<path d="M1163 1143 c4 -3 -1 -16 -10 -27 -18 -21 -18 -21 4 -2 20 16 23 36 6
36 -4 0 -3 -3 0 -7z"/>
<path d="M1645 1121 c-3 -5 -2 -12 3 -15 5 -3 9 1 9 9 0 17 -3 19 -12 6z"/>
<path d="M2335 3131 c-3 -5 -2 -12 3 -15 5 -3 9 1 9 9 0 17 -3 19 -12 6z"/>
<path d="M1740 3115 c0 -4 9 -18 19 -31 16 -21 20 -22 25 -7 4 9 0 22 -9 30
-8 7 -10 8 -5 1 6 -7 10 -17 10 -22 -1 -6 -10 0 -20 13 -11 13 -20 20 -20 16z"/>
<path d="M2390 3060 c-13 -8 -12 -10 3 -10 9 0 17 5 17 10 0 12 -1 12 -20 0z"/>
<path d="M2355 3041 c-9 -16 14 -53 30 -47 17 6 43 -24 40 -45 -2 -10 4 -16
13 -15 9 1 16 -8 17 -22 1 -12 8 -28 15 -35 10 -9 11 -9 5 2 -4 8 -2 17 6 23
11 8 10 8 -4 4 -15 -5 -17 -2 -12 14 4 13 2 20 -6 20 -7 0 -10 3 -6 6 3 4 0
19 -9 35 -14 28 -15 46 -3 42 3 -1 6 5 6 12 0 10 -4 12 -12 5 -7 -5 -16 -6
-20 -2 -5 4 -5 1 -1 -5 10 -17 0 -16 -28 3 -16 10 -26 11 -31 5z m31 -23 c13
-1 39 -21 49 -38 4 -8 -4 -4 -18 9 -15 14 -27 21 -27 17 0 -5 -7 -3 -15 4 -8
7 -15 18 -15 24 0 7 4 6 9 -2 4 -8 12 -14 17 -14z"/>
<path d="M2495 2960 c-3 -5 -2 -18 4 -27 7 -14 9 -12 8 10 -2 30 -3 31 -12 17z"/>
<path d="M2494 2888 c-4 -7 -4 -10 1 -6 4 4 15 2 24 -5 14 -11 14 -10 2 6 -16
20 -18 21 -27 5z"/>
<path d="M3470 2766 c0 -2 8 -10 18 -17 15 -13 16 -12 3 4 -13 16 -21 21 -21
13z"/>
<path d="M2850 2750 c0 -5 5 -10 11 -10 5 0 7 5 4 10 -3 6 -8 10 -11 10 -2 0
-4 -4 -4 -10z"/>
<path d="M3493 2723 c-15 -5 -17 -23 -4 -23 5 0 11 7 15 15 3 8 4 15 3 14 -1
0 -8 -3 -14 -6z"/>
<path d="M3666 2587 c3 -10 9 -15 12 -12 3 3 0 11 -7 18 -10 9 -11 8 -5 -6z"/>
<path d="M3704 2479 c0 -10 4 -19 8 -19 4 0 8 6 8 14 0 8 -4 17 -8 20 -4 2 -8
-4 -8 -15z"/>
<path d="M3680 2450 c8 -5 20 -10 25 -10 6 0 3 5 -5 10 -8 5 -19 10 -25 10 -5
0 -3 -5 5 -10z"/>
<path d="M3670 2431 c0 -14 23 -19 45 -9 18 8 18 8 -2 4 -13 -2 -23 0 -23 5 0
5 -4 9 -10 9 -5 0 -10 -4 -10 -9z"/>
<path d="M3724 2389 c-3 -6 -1 -16 6 -22 10 -9 11 -9 5 2 -4 8 -2 17 6 22 9 6
10 9 2 9 -6 0 -15 -5 -19 -11z"/>
<path d="M3700 2371 c0 -6 4 -13 10 -16 6 -3 7 1 4 9 -7 18 -14 21 -14 7z"/>
<path d="M3739 2223 c-13 -16 -12 -17 4 -4 16 13 21 21 13 21 -2 0 -10 -8 -17
-17z"/>
<path d="M3730 2190 c0 -5 5 -10 11 -10 5 0 7 5 4 10 -3 6 -8 10 -11 10 -2 0
-4 -4 -4 -10z"/>
<path d="M3635 2159 c-11 -4 -15 -8 -10 -8 6 -1 3 -6 -5 -11 -12 -8 -12 -10
-1 -10 8 0 4 -8 -10 -19 -19 -15 -27 -17 -39 -8 -9 7 -7 3 3 -10 l18 -21 39
22 c36 19 37 22 19 31 -11 6 -17 14 -13 18 4 4 13 2 20 -4 15 -12 34 -4 33 14
0 9 -2 9 -6 0 -2 -7 -9 -13 -14 -13 -6 0 -8 4 -4 9 8 14 -7 20 -30 10z m14
-42 c-2 -2 -17 -11 -34 -21 l-30 -17 24 20 c13 12 28 21 34 21 6 0 8 -1 6 -3z"/>
<path d="M3593 2042 c-8 -14 -8 -19 1 -19 7 0 13 9 13 19 1 10 1 18 0 18 -1 0
-7 -8 -14 -18z"/>
<path d="M3626 2048 c3 -5 10 -6 15 -3 13 9 11 12 -6 12 -8 0 -12 -4 -9 -9z"/>
<path d="M3457 1981 c-15 -17 -32 -31 -38 -31 -5 0 -7 -5 -4 -10 3 -6 -3 -22
-14 -36 -12 -15 -21 -31 -21 -35 0 -15 28 -10 34 7 3 8 11 12 17 8 8 -4 9 -3
5 5 -4 6 -12 8 -18 5 -6 -4 -9 -1 -7 5 3 7 9 13 14 13 15 0 45 18 44 26 -3 19
2 25 11 12 6 -9 10 -10 10 -3 0 6 -4 15 -10 18 -5 3 -10 11 -10 17 0 6 9 3 20
-7 11 -10 20 -13 20 -7 0 7 -4 12 -9 12 -5 0 -11 7 -13 16 -2 12 -9 9 -31 -15z
m4 -24 c-6 -8 -8 -16 -5 -19 2 -3 -2 -8 -10 -11 -20 -8 -17 13 4 30 20 16 25
16 11 0z"/>
<path d="M3530 1969 c0 -5 5 -7 10 -4 6 3 10 8 10 11 0 2 -4 4 -10 4 -5 0 -10
-5 -10 -11z"/>
<path d="M3466 1915 c-11 -8 -15 -15 -9 -15 6 0 16 7 23 15 16 19 11 19 -14 0z"/>
<path d="M3414 1848 c-3 -5 0 -7 8 -6 7 2 12 -4 10 -12 -2 -8 0 -11 4 -7 14
13 12 34 -3 34 -7 0 -16 -4 -19 -9z"/>
<path d="M3346 1754 c-5 -14 -4 -15 9 -4 17 14 19 20 6 20 -5 0 -12 -7 -15
-16z"/>
<path d="M3316 1723 c-6 -14 -5 -15 5 -6 7 7 10 15 7 18 -3 3 -9 -2 -12 -12z"/>
<path d="M3230 1611 c0 -6 4 -13 10 -16 6 -3 7 1 4 9 -7 18 -14 21 -14 7z"/>
<path d="M2305 1572 c-38 -35 -55 -82 -30 -82 6 0 10 4 10 9 0 5 10 21 22 35
13 14 18 26 12 26 -5 0 -7 5 -4 10 4 6 10 8 14 6 13 -8 37 12 26 23 -6 6 -24
-4 -50 -27z m-11 -37 c-18 -27 -25 -32 -21 -13 2 11 26 37 35 38 1 0 -5 -11
-14 -25z"/>
<path d="M3239 1563 c-12 -16 -12 -17 2 -6 9 7 20 9 24 5 5 -4 5 -1 1 6 -9 16
-11 15 -27 -5z"/>
<path d="M2350 1560 c-8 -5 -12 -12 -9 -15 4 -3 12 1 19 10 14 17 11 19 -10 5z"/>
<path d="M2310 1509 c0 -5 5 -7 10 -4 6 3 10 8 10 11 0 2 -4 4 -10 4 -5 0 -10
-5 -10 -11z"/>
<path d="M3196 1503 c-6 -14 -5 -15 5 -6 7 7 10 15 7 18 -3 3 -9 -2 -12 -12z"/>
<path d="M2279 1463 c-13 -16 -12 -17 4 -4 9 7 17 15 17 17 0 8 -8 3 -21 -13z"/>
<path d="M3140 1469 c0 -5 5 -7 10 -4 6 3 10 8 10 11 0 2 -4 4 -10 4 -5 0 -10
-5 -10 -11z"/>
<path d="M3116 1445 c-4 -12 -10 -14 -25 -5 -13 7 -22 7 -26 0 -4 -6 -10 -8
-15 -5 -5 3 -15 -3 -22 -12 -7 -10 -24 -18 -38 -18 -21 0 -25 -5 -26 -33 -1
-25 2 -32 14 -30 9 2 17 -2 17 -9 0 -6 3 -14 7 -18 13 -13 2 23 -16 49 -10 15
-15 30 -12 34 3 3 6 0 6 -8 0 -10 3 -10 15 0 9 8 15 8 15 2 0 -6 -5 -12 -11
-14 -6 -2 -2 -11 9 -21 13 -12 22 -15 27 -7 3 6 1 9 -6 8 -6 -2 -14 3 -17 11
-3 8 0 11 7 7 7 -5 9 -1 5 11 -4 13 0 11 16 -7 l22 -25 -16 27 c-15 26 -15 28
3 38 16 8 22 6 31 -7 11 -17 11 -17 6 0 -4 14 -1 16 17 13 17 -3 23 1 24 15 2
23 -3 25 -11 4z"/>
<path d="M2199 1403 c-13 -16 -12 -17 4 -4 9 7 17 15 17 17 0 8 -8 3 -21 -13z"/>
<path d="M2591 1399 c-13 -10 -19 -19 -14 -19 5 0 14 5 21 12 7 7 12 8 12 2 0
-5 -5 -15 -10 -20 -7 -7 -6 -11 4 -11 8 0 12 5 9 10 -3 5 0 7 8 5 8 -3 13 -10
12 -16 -2 -6 6 -9 17 -7 11 2 20 -1 20 -7 0 -5 7 -8 14 -5 11 4 13 1 9 -10 -5
-12 -1 -14 18 -9 23 7 23 6 5 -8 -11 -9 -15 -16 -10 -16 6 0 15 5 22 12 6 6
15 8 19 4 4 -4 1 -11 -7 -16 -8 -6 -10 -10 -4 -10 6 0 17 7 24 15 10 12 10 15
0 15 -10 0 -10 3 -1 14 9 11 9 16 0 22 -7 4 -9 3 -5 -4 12 -19 -14 -24 -39 -8
-14 9 -28 16 -32 17 -5 0 -21 13 -38 29 -30 29 -30 29 -54 9z m49 -14 c13 -14
21 -25 18 -25 -2 0 -15 11 -28 25 -13 14 -21 25 -18 25 2 0 15 -11 28 -25z"/>
<path d="M3055 1400 c3 -5 8 -10 11 -10 2 0 4 5 4 10 0 6 -5 10 -11 10 -5 0
-7 -4 -4 -10z"/>
<path d="M2175 1370 c-3 -6 1 -7 9 -4 18 7 21 14 7 14 -6 0 -13 -4 -16 -10z"/>
<path d="M2110 1353 c0 -5 5 -15 10 -23 7 -12 9 -10 7 8 -1 19 -17 33 -17 15z"/>
<path d="M2140 1352 c0 -5 7 -9 15 -9 8 0 12 4 9 9 -3 4 -9 8 -15 8 -5 0 -9
-4 -9 -8z"/>
<path d="M2062 1325 c-7 -8 -10 -15 -6 -15 3 0 1 -7 -6 -15 -7 -8 -9 -15 -5
-15 4 0 2 -6 -4 -14 -9 -11 -8 -15 4 -20 10 -3 13 -2 10 5 -4 5 -1 16 5 24 7
8 9 15 4 15 -5 0 -1 5 9 11 9 6 14 15 11 21 -5 7 -2 8 5 4 7 -5 10 -15 7 -23
-3 -8 -1 -11 4 -8 15 9 12 32 -6 39 -19 7 -16 8 -32 -9z"/>
<path d="M2628 1333 c6 -2 18 -2 25 0 6 3 1 5 -13 5 -14 0 -19 -2 -12 -5z"/>
<path d="M2666 1313 c-6 -14 -5 -15 5 -6 7 7 10 15 7 18 -3 3 -9 -2 -12 -12z"/>
<path d="M2136 1305 c-9 -26 -7 -32 5 -12 6 10 9 21 6 23 -2 3 -7 -2 -11 -11z"/>
<path d="M2080 1270 c-9 -6 -10 -10 -3 -10 6 0 15 5 18 10 8 12 4 12 -15 0z"/>
<path d="M2735 1270 c5 -8 42 -6 50 1 2 3 -8 5 -25 5 -16 0 -27 -3 -25 -6z"/>
<path d="M1437 1219 c7 -7 15 -10 18 -7 3 3 -2 9 -12 12 -14 6 -15 5 -6 -5z"/>
<path d="M2015 1211 c-3 -5 -2 -12 3 -15 5 -3 9 1 9 9 0 17 -3 19 -12 6z"/>
<path d="M1546 1201 c-5 -7 -3 -18 3 -24 14 -14 20 -6 11 17 -5 15 -9 16 -14
7z"/>
<path d="M1473 1185 c0 -7 6 -11 14 -8 7 3 13 6 13 8 0 2 -6 5 -13 8 -8 3 -14
-1 -14 -8z"/>
<path d="M1993 1175 c0 -8 4 -12 9 -9 5 3 6 10 3 15 -9 13 -12 11 -12 -6z"/>
<path d="M1291 1154 c0 -11 3 -14 6 -6 3 7 2 16 -1 19 -3 4 -6 -2 -5 -13z"/>
<path d="M1866 1156 c2 -6 14 -17 25 -24 12 -8 18 -9 14 -3 -3 6 2 11 12 12
14 0 12 3 -7 11 -37 16 -49 17 -44 4z"/>
<path d="M1941 1154 c0 -11 3 -14 6 -6 3 7 2 16 -1 19 -3 4 -6 -2 -5 -13z"/>
<path d="M1535 1130 c-3 -5 -1 -10 4 -10 6 0 11 5 11 10 0 6 -2 10 -4 10 -3 0
-8 -4 -11 -10z"/>
<path d="M1556 1115 c-3 -8 -1 -15 4 -15 6 0 10 7 10 15 0 8 -2 15 -4 15 -2 0
-6 -7 -10 -15z"/>
<path d="M440 1089 c-12 -9 -12 -10 4 -5 14 5 17 3 12 -11 -6 -15 -5 -16 5 -5
18 17 -1 35 -21 21z"/>
<path d="M1599 1063 c-13 -16 -12 -17 4 -4 14 11 20 11 35 0 15 -13 16 -12 3
4 -7 9 -17 17 -21 17 -4 0 -14 -8 -21 -17z"/>
<path d="M1674 1054 c7 -38 14 -40 12 -5 0 17 -4 31 -9 31 -4 0 -5 -12 -3 -26z"/>
<path d="M572 1041 c7 -11 16 -17 20 -14 10 5 -10 33 -23 33 -5 0 -4 -9 3 -19z"/>
<path d="M1130 1050 c0 -5 5 -10 11 -10 5 0 7 5 4 10 -3 6 -8 10 -11 10 -2 0
-4 -4 -4 -10z"/>
<path d="M1810 1049 c0 -5 5 -7 10 -4 6 3 10 8 10 11 0 2 -4 4 -10 4 -5 0 -10
-5 -10 -11z"/>
<path d="M470 1031 c0 -6 4 -13 10 -16 6 -3 7 1 4 9 -7 18 -14 21 -14 7z"/>
<path d="M1056 1011 c-3 -4 6 -6 19 -3 14 2 25 6 25 8 0 8 -39 4 -44 -5z"/>
<path d="M640 930 c-9 -6 -10 -10 -3 -10 6 0 15 5 18 10 8 12 4 12 -15 0z"/>
<path d="M678 933 c7 -3 16 -2 19 1 4 3 -2 6 -13 5 -11 0 -14 -3 -6 -6z"/>
<path d="M880 930 c-9 -6 -10 -10 -3 -10 6 0 15 5 18 10 8 12 4 12 -15 0z"/>
<path d="M796 917 c3 -10 9 -15 12 -12 3 3 0 11 -7 18 -10 9 -11 8 -5 -6z"/>
</g>
</svg>
